<svg xmlns="http://www.w3.org/2000/svg" width="32" height="32" viewBox="0 0 410 404">
  <defs>
    <linearGradient id="IconifyId1813088fe1fbc01fb466" x1="19.11%" x2="90.74%" y1="72.375%" y2="27.565%">
      <stop offset="0%" stop-color="#2563eb"/>
      <stop offset="100%" stop-color="#1d4ed8"/>
    </linearGradient>
    <linearGradient id="IconifyId1813088fe1fbc01fb467" x1="15.22%" x2="63.18%" y1="24.818%" y2="75.221%">
      <stop offset="0%" stop-color="#3b82f6"/>
      <stop offset="100%" stop-color="#1e40af"/>
    </linearGradient>
  </defs>
  <path fill="url(#IconifyId1813088fe1fbc01fb466)" d="M229.763 1.781c-3.036-3.658-8.49-3.658-11.526 0L3.394 222.637c-3.905 4.703-.65 11.651 5.763 12.297L143.4 252.37c1.17.118 2.23.65 3.036 1.52l49.833 53.993c3.905 4.233 10.83 1.618 10.83-4.085V18.456c0-2.607-.553-5.099-1.581-7.363l-15.581-43.885a7.474 7.474 0 0 0-14.145 0L160.21 11.093c-1.028 2.264-1.581 4.756-1.581 7.363v285.342c0 5.703 6.925 8.318 10.83 4.085l49.833-53.993c.806-.87 1.866-1.402 3.036-1.52l134.243-17.436c6.413-.646 9.668-7.594 5.763-12.297L229.763 1.781Z"/>
  <path fill="url(#IconifyId1813088fe1fbc01fb467)" d="m135.05 262.344l120.601 15.669a2.99 2.99 0 0 0 2.826-1.131l48.251-52.174c1.235-1.334.43-3.525-1.26-3.525H118.398a1.91 1.91 0 0 0-1.81 2.544l18.462 38.617Z"/>
</svg>